#!OML:ASF Y:\EmotionMaleHayes\Project 1\Capture day 1\Session 1\Male1.ASF
:FULLY-SPECIFIED
:DEGREES
142
root -28.6014 17.1432 0.216904 31.2447 86.4347 28.9967
lowerback 4.38597 1.03733 -4.40896
upperback 1.16833 1.20075 -0.455694
thorax -1.33644 0.618149 1.93692
lowerneck -20.6237 2.26384 3.68176
upperneck 25.6522 2.56738 -1.12359
head 11.9136 1.46589 -0.603488
rclavicle -1.13928e-014 2.38542e-015
rhumerus -32.5676 2.12989 -88.6788
rradius 30.4981
rwrist 5.87917
rhand -11.9439 -27.58
rfingers 7.12502
rthumb 14.1111 -57.0808
lclavicle -1.13928e-014 2.38542e-015
lhumerus -29.4438 -13.9109 92.9196
lradius 24.8385
lwrist -13.5066
lhand -15.9776 -26.2935
lfingers 7.12502
lthumb 10.2218 3.43819
rfemur 8.0657 -3.27184 12.5991
rtibia 3.87366
rfoot -15.842 -4.42916
rtoes -1.67817
lfemur 10.4232 0.836196 -16.7794
ltibia -1.94179
lfoot -10.5913 8.15162
ltoes 0
143
root -28.6029 17.1433 0.217966 29.6474 86.4982 27.4205
lowerback 4.49879 1.024 -4.33715
upperback 1.11925 1.17874 -0.388599
thorax -1.44867 0.6095 1.96461
lowerneck -20.5591 2.25715 3.61873
upperneck 25.6278 2.57573 -1.10099
head 11.89 1.46681 -0.583746
rclavicle 1.6027e-015 8.84592e-015
rhumerus -32.7294 2.35738 -88.6988
rradius 30.6045
rwrist 5.72699
rhand -11.9401 -27.6927
rfingers 7.12502
rthumb 14.1147 -57.1933
lclavicle 1.6027e-015 8.84592e-015
lhumerus -29.5014 -13.6959 92.8937
lradius 24.732
lwrist -13.8218
lhand -16.2178 -26.5117
lfingers 7.12502
lthumb 9.99004 3.23118
rfemur 8.08825 -3.17558 12.7734
rtibia 3.86335
rfoot -15.8593 -4.41208
rtoes -1.3886
lfemur 10.4658 0.871935 -16.599
ltibia -1.98098
lfoot -10.6038 8.11615
ltoes 0
144
root -28.6054 17.1425 0.219038 27.7721 86.5292 25.5362
lowerback 4.50159 1.03096 -4.20896
upperback 1.11665 1.19352 -0.376947
thorax -1.45167 0.616449 1.90385
lowerneck -20.5599 2.25509 3.66723
upperneck 25.6203 2.55877 -1.11157
head 11.8878 1.46246 -0.59862
rclavicle 4.42296e-015 -1.8487e-014
rhumerus -32.7026 2.32121 -88.7197
rradius 30.5605
rwrist 5.71818
rhand -11.9904 -27.7579
rfingers 7.12502
rthumb 14.0662 -57.2618
lclavicle 4.42296e-015 -1.8487e-014
lhumerus -29.4698 -13.7227 92.857
lradius 24.6287
lwrist -13.9019
lhand -16.4459 -26.6761
lfingers 7.12502
lthumb 9.76999 3.07729
rfemur 8.05032 -3.09945 12.9403
rtibia 3.88371
rfoot -15.8428 -4.52999
rtoes -1.98371
lfemur 10.5469 0.55284 -16.551
ltibia -2.15667
lfoot -10.5625 8.4165
ltoes 0
145
root -28.6056 17.1404 0.219806 27.7115 86.4711 25.4631
lowerback 4.4188 1.04317 -4.20458
upperback 1.15885 1.21544 -0.415353
thorax -1.36242 0.625341 1.86248
lowerneck -20.576 2.26297 3.7023
upperneck 25.573 2.54551 -1.08204
head 11.8726 1.46269 -0.595722
rclavicle -5.64051e-015 1.43125e-014
rhumerus -32.5287 2.09218 -88.704
rradius 30.3739
rwrist 5.95394
rhand -12.0451 -27.5629
rfingers 7.12502
rthumb 14.0136 -57.0706
lclavicle -5.64051e-015 1.43125e-014
lhumerus -29.3807 -13.7877 92.8039
lradius 24.5657
lwrist -13.8041
lhand -16.4496 -26.6166
lfingers 7.12502
lthumb 9.76637 3.13698
rfemur 8.02613 -3.06951 12.9095
rtibia 3.88374
rfoot -15.8756 -4.52691
rtoes -1.95733
lfemur 10.5421 0.615706 -16.5678
ltibia -2.14839
lfoot -10.5313 8.40615
ltoes 0
146
root -28.6037 17.1381 0.219833 30.2662 86.4044 28.0348
lowerback 4.53416 1.03058 -4.44331
upperback 1.08739 1.17949 -0.406239
thorax -1.50298 0.611736 2.00491
lowerneck -20.5338 2.27672 3.61535
upperneck 25.5989 2.5878 -1.04354
head 11.8733 1.47926 -0.560099
rclavicle 4.96962e-016 -2.38542e-015
rhumerus -32.6978 2.13334 -88.6451
rradius 30.3983
rwrist 6.08597
rhand -12.101 -27.4229
rfingers 7.12502
rthumb 13.9597 -56.9343
lclavicle 4.96962e-016 -2.38542e-015
lhumerus -29.5117 -13.6559 92.8549
lradius 24.531
lwrist -13.726
lhand -16.3249 -26.5879
lfingers 7.12502
lthumb 9.8867 3.15999
rfemur 8.08798 -3.09842 12.6767
rtibia 3.83264
rfoot -15.8588 -4.48916
rtoes -1.24378
lfemur 10.6589 0.213893 -16.9228
ltibia -2.33076
lfoot -10.6103 8.75875
ltoes 0
147
root -28.6038 17.1379 0.220171 32.4822 86.3528 30.2729
lowerback 4.4566 1.00086 -4.57046
upperback 1.16993 1.14167 -0.455171
thorax -1.37328 0.589977 2.03015
lowerneck -20.6201 2.30125 3.63995
upperneck 25.5663 2.6158 -1.07515
head 11.8794 1.48794 -0.570979
rclavicle -1.30949e-014 8.15017e-015
rhumerus -32.6732 2.20019 -88.6804
rradius 30.4506
rwrist 6.09909
rhand -12.1356 -27.236
rfingers 7.12502
rthumb 13.9263 -56.7497
lclavicle -1.30949e-014 8.15017e-015
lhumerus -29.3706 -13.4957 92.7114
lradius 24.4244
lwrist -13.8143
lhand -15.8392 -26.8352
lfingers 7.12502
lthumb 10.3553 2.8898
rfemur 8.13298 -3.07089 12.4999
rtibia 3.80904
rfoot -15.8608 -4.52442
rtoes -1.35265
lfemur 10.6928 0.0376118 -17.1476
ltibia -2.35885
lfoot -10.7135 8.804
ltoes 0
148
root -28.6045 17.1377 0.222336 32.1947 86.3375 29.9703
lowerback 4.58116 1.00761 -4.54187
upperback 1.06911 1.14065 -0.486446
thorax -1.54563 0.594102 1.97892
lowerneck -20.6064 2.29302 3.73358
upperneck 25.6859 2.59836 -1.13902
head 11.9252 1.4836 -0.612894
rclavicle -4.4975e-015 4.37326e-015
rhumerus -32.8595 2.08049 -88.6939
rradius 30.4062
rwrist 6.26716
rhand -12.1066 -27.0271
rfingers 7.12502
rthumb 13.9542 -56.5388
lclavicle -4.4975e-015 4.37326e-015
lhumerus -29.5266 -13.3787 92.6129
lradius 24.3691
lwrist -13.9831
lhand -14.7897 -26.9377
lfingers 7.12502
lthumb 11.3676 2.73418
rfemur 8.11345 -2.94455 12.5525
rtibia 3.84118
rfoot -15.9303 -4.54695
rtoes -1.90663
lfemur 10.5217 0.77549 -16.8583
ltibia -2.04556
lfoot -10.7117 8.03533
ltoes 0
149
root -28.6051 17.1367 0.223909 29.6093 86.4038 27.321
lowerback 4.33363 0.99909 -4.3563
upperback 1.18371 1.15536 -0.456622
thorax -1.28732 0.594177 1.91014
lowerneck -20.681 2.29551 3.73078
upperneck 25.6209 2.58445 -1.10693
head 11.9139 1.47885 -0.602433
rclavicle 3.2551e-015 -1.27222e-014
rhumerus -32.6966 1.98312 -88.6909
rradius 30.3598
rwrist 6.4792
rhand -12.093 -26.9767
rfingers 7.12502
rthumb 13.9674 -56.4875
lclavicle 3.2551e-015 -1.27222e-014
lhumerus -29.3295 -13.4345 92.5203
lradius 24.3147
lwrist -13.9872
lhand -14.5 -26.5225
lfingers 7.12502
lthumb 11.647 3.13378
rfemur 8.0288 -2.91725 12.7941
rtibia 3.89921
rfoot -15.9635 -4.45698
rtoes -2.15059
lfemur 10.4521 0.961685 -16.5555
ltibia -2.00789
lfoot -10.694 7.85901
ltoes 0
150
root -28.6047 17.1361 0.222216 29.2942 86.448 26.9854
lowerback 4.32638 0.996513 -4.25667
upperback 1.16519 1.15557 -0.474902
thorax -1.30015 0.594481 1.83548
lowerneck -20.6049 2.27808 3.64693
upperneck 25.5827 2.55505 -0.982661
head 11.8801 1.47439 -0.54749
rclavicle 6.23687e-015 -6.16232e-015
rhumerus -32.7611 1.93143 -88.708
rradius 30.368
rwrist 6.45354
rhand -12.1454 -27.0319
rfingers 7.12502
rthumb 13.9168 -56.5461
lclavicle 6.23687e-015 -6.16232e-015
lhumerus -29.3454 -13.5005 92.5089
lradius 24.2292
lwrist -13.973
lhand -15.4327 -26.0636
lfingers 7.12502
lthumb 10.7474 3.64147
rfemur 8.01533 -3.08329 12.7829
rtibia 3.88633
rfoot -16.0468 -4.3457
rtoes -2.93762
lfemur 10.4842 0.670384 -16.6054
ltibia -2.09802
lfoot -10.7909 8.06585
ltoes 0
151
root -28.6032 17.1351 0.220918 30.6658 86.433 28.3838
lowerback 4.42166 0.998774 -4.355
upperback 1.1214 1.14783 -0.464948
thorax -1.40004 0.593314 1.89917
lowerneck -20.5578 2.26989 3.56936
upperneck 25.6142 2.56801 -0.958866
head 11.8816 1.47706 -0.523694
rclavicle -7.7526e-015 2.72335e-014
rhumerus -32.8088 2.01861 -88.6726
rradius 30.306
rwrist 6.24189
rhand -12.2452 -27.0939
rfingers 7.12502
rthumb 13.8207 -56.6147
lclavicle -7.7526e-015 2.72335e-014
lhumerus -29.4227 -13.4188 92.5804
lradius 24.1689
lwrist -13.9152
lhand -15.8951 -25.923
lfingers 7.12502
lthumb 10.3013 3.80476
rfemur 8.08766 -3.16583 12.6263
rtibia 3.83312
rfoot -16.2678 -4.30761
rtoes -3.55355
lfemur 10.5506 0.483532 -16.7766
ltibia -2.18605
lfoot -10.879 8.16939
ltoes 0
152
root -28.604 17.1325 0.222108 29.8041 86.4311 27.4999
lowerback 4.40648 0.999657 -4.45584
upperback 1.12051 1.14621 -0.33736
thorax -1.39684 0.592375 2.08729
lowerneck -20.5887 2.2743 3.46572
upperneck 25.6637 2.62732 -1.0162
head 11.9073 1.4861 -0.517605
rclavicle 8.44835e-016 -1.08338e-014
rhumerus -32.7929 2.19743 -88.5447
rradius 30.3096
rwrist 6.11601
rhand -12.2329 -27.1485
rfingers 7.12502
rthumb 13.8326 -56.6686
lclavicle 8.44835e-016 -1.08338e-014
lhumerus -29.4058 -13.1062 92.6329
lradius 24.0145
lwrist -14.1963
lhand -15.7106 -26.2528
lfingers 7.12502
lthumb 10.4794 3.46596
rfemur 8.05651 -3.14714 12.6648
rtibia 3.89726
rfoot -16.4722 -4.10828
rtoes -2.38454
lfemur 10.5663 0.366628 -16.7493
ltibia -2.28636
lfoot -10.7933 8.33661
ltoes 0
153
root -28.604 17.129 0.22288 29.148 86.444 26.8109
lowerback 4.44051 0.985179 -4.29675
upperback 1.06751 1.12943 -0.405121
thorax -1.46506 0.585499 1.92835
lowerneck -20.5831 2.28396 3.52532
upperneck 25.6984 2.62113 -1.01002
head 11.9205 1.49085 -0.526131
rclavicle -8.69683e-015 -7.15625e-015
rhumerus -32.9027 2.01736 -88.6122
rradius 30.359
rwrist 6.25728
rhand -12.1857 -27.1765
rfingers 7.12502
rthumb 13.878 -56.6934
lclavicle -8.69683e-015 -7.15625e-015
lhumerus -29.516 -13.0707 92.4804
lradius 23.9681
lwrist -14.232
lhand -15.4127 -26.3565
lfingers 7.12502
lthumb 10.7667 3.3476
rfemur 7.98992 -3.27742 12.6373
rtibia 4.01276
rfoot -16.5602 -3.66104
rtoes -0.880003
lfemur 10.4805 0.552068 -16.6213
ltibia -2.18344
lfoot -10.7073 8.23483
ltoes 0
154
root -28.6012 17.1265 0.222191 29.8312 86.4698 27.4761
lowerback 4.43567 0.968282 -4.2715
upperback 1.05418 1.10757 -0.428768
thorax -1.47373 0.574843 1.89111
lowerneck -20.6571 2.27711 3.57497
upperneck 25.7539 2.61836 -1.09765
head 11.9588 1.48287 -0.56682
rclavicle 6.22444e-015 -1.51076e-014
rhumerus -32.9533 1.94785 -88.6085
rradius 30.3625
rwrist 6.3187
rhand -12.1956 -27.1021
rfingers 7.12502
rthumb 13.8685 -56.6197
lclavicle 6.22444e-015 -1.51076e-014
lhumerus -29.5611 -13.069 92.4487
lradius 23.9293
lwrist -14.1379
lhand -15.3882 -26.4191
lfingers 7.12502
lthumb 10.7903 3.28372
rfemur 7.97576 -3.47884 12.5003
rtibia 4.05616
rfoot -16.6333 -3.23868
rtoes -0.54313
lfemur 10.3981 0.672867 -16.613
ltibia -2.04576
lfoot -10.8225 8.09641
ltoes 0
155
root -28.5993 17.125 0.222667 31.3764 86.4716 29.0422
lowerback 4.46689 0.954004 -4.35432
upperback 1.07806 1.08421 -0.454446
thorax -1.46602 0.563271 1.91219
lowerneck -20.8137 2.29045 3.62237
upperneck 25.8205 2.62917 -1.14823
head 12.0178 1.48464 -0.590378
rclavicle -5.96354e-016 1.88845e-014
rhumerus -32.9786 2.0111 -88.6228
rradius 30.3995
rwrist 6.24289
rhand -12.1952 -27.0387
rfingers 7.12502
rthumb 13.8689 -56.5563
lclavicle -5.96354e-016 1.88845e-014
lhumerus -29.5517 -13.0798 92.4084
lradius 23.9261
lwrist -14.0729
lhand -15.3994 -26.7048
lfingers 7.12502
lthumb 10.7795 2.99864
rfemur 8.01601 -3.65934 12.3158
rtibia 4.07315
rfoot -16.7122 -3.03448
rtoes -1.35399
lfemur 10.3771 0.640573 -16.723
ltibia -1.94312
lfoot -10.9068 7.9996
ltoes 0
156
root -28.5991 17.123 0.223214 32.1933 86.4565 29.8854
lowerback 4.55304 0.944902 -4.40936
upperback 1.08293 1.06534 -0.473036
thorax -1.50851 0.555032 1.92372
lowerneck -20.8659 2.31311 3.61691
upperneck 25.7539 2.65083 -1.13075
head 12.0024 1.49395 -0.579262
rclavicle 9.06955e-016 7.35503e-015
rhumerus -33.0173 2.06317 -88.6431
rradius 30.4275
rwrist 6.19647
rhand -12.2336 -26.9968
rfingers 7.12502
rthumb 13.8319 -56.5169
lclavicle 9.06955e-016 7.35503e-015
lhumerus -29.5503 -12.9816 92.3157
lradius 23.9058
lwrist -14.1625
lhand -15.2353 -26.9143
lfingers 7.12502
lthumb 10.9378 2.78078
rfemur 8.03093 -3.62958 12.2346
rtibia 4.10691
rfoot -16.9119 -2.94124
rtoes -1.80153
lfemur 10.4439 0.347342 -16.8781
ltibia -2.00284
lfoot -10.8979 8.20931
ltoes 0
